<svg xmlns="http://www.w3.org/2000/svg" width="24" height="24" viewBox="0 0 24 24">
    <g fill="none" fill-rule="evenodd">
        <g fill="#FFF">
            <g>
                <path d="M17.25 9.75H13.5v1.5h3.75v1.5h-3c-.828 0-1.5.672-1.5 1.5v1.5c0 .828.672 1.5 1.5 1.5h4.5v-6c0-.828-.672-1.5-1.5-1.5zm0 6h-3v-1.5h3v1.5zm-7.5-9h-3c-.828 0-1.5.672-1.5 1.5v9h1.5V13.5h3v3.75h1.5v-9c0-.828-.672-1.5-1.5-1.5zm-3 5.25V8.25h3V12h-3z" transform="translate(-73 -386) translate(73 386)"/>
            </g>
        </g>
    </g>
</svg>
