<svg xmlns="http://www.w3.org/2000/svg" width="24" height="25" viewBox="0 0 24 25">
    <g fill="none" fill-rule="evenodd">
        <g fill="#FFF">
            <g>
                <path d="M13.5 9h-3V6H9v3H6v1.5h3v3h1.5v-3h3V9zm2.586 6C17.323 13.53 18 11.671 18 9.75c0-4.556-3.694-8.25-8.25-8.25S1.5 5.194 1.5 9.75 5.194 18 9.75 18c1.921.001 3.78-.677 5.25-1.914l5.69 5.664 1.06-1.06L16.086 15zM9.75 16.5C6.022 16.5 3 13.478 3 9.75S6.022 3 9.75 3s6.75 3.022 6.75 6.75c-.004 3.726-3.024 6.746-6.75 6.75z" transform="translate(-73 -525) translate(73 525.56)"/>
            </g>
        </g>
    </g>
</svg>
