<?xml version="1.0" encoding="UTF-8"?>
<svg width="17px" height="17px" viewBox="0 0 17 17" version="1.1" xmlns="http://www.w3.org/2000/svg" xmlns:xlink="http://www.w3.org/1999/xlink">
    <title>D2A52731-81A8-48FA-96F0-D948AC6E99F7</title>
    <g id="Annotation-V2" stroke="none" stroke-width="1" fill="none" fill-rule="evenodd">
        <g id="01.01---Eba--Desktop-app---Annotation---Picture-In-Picture---Drawing-Pressed" transform="translate(-1270.000000, -38.000000)" fill="#FFFFFF">
            <path d="M1286.05,43.25 C1286.65,42.65 1286.65,41.75 1286.05,41.15 C1286.05,41.15 1286.05,41.15 1286.05,41.15 L1283.35,38.45 C1282.75,37.85 1281.85,37.85 1281.25,38.45 C1281.25,38.45 1281.25,38.45 1281.25,38.45 L1270,49.7 L1270,54.5 L1274.8,54.5 L1286.05,43.25 Z M1282.3,39.5 L1285,42.2 L1282.75,44.45 L1280.05,41.75 L1282.3,39.5 Z M1271.5,53 L1271.5,50.3 L1279,42.8 L1281.7,45.5 L1274.2,53 L1271.5,53 Z" id="Fill"></path>
        </g>
    </g>
</svg>