<svg xmlns="http://www.w3.org/2000/svg" width="21" height="21" viewBox="0 0 21 21">
    <g fill="none" fill-rule="evenodd">
        <g fill="#F5FBFD" fill-rule="nonzero">
            <g>
                <path d="M3.36 7.71l4.35 4.352c.72.72 1.891.72 2.611 0 .542-.543.676-1.34.401-2.009L8.396 4.4c-.153-.385-.383-.739-.684-1.04-1.201-1.201-3.15-1.201-4.351 0-1.201 1.2-1.201 3.15 0 4.35zm4.82-.601l.743 1.805c-.441.022-.876.2-1.212.537-.153.153-.273.325-.36.51L5.97 8.58c.657-.093 1.264-.393 1.74-.87.184-.183.34-.385.47-.602zm1.271 4.082c-.24.24-.63.24-.87 0s-.24-.63 0-.87.63-.24.87 0 .24.63 0 .87zM4.23 4.23c.72-.72 1.89-.72 2.61 0 .724.723.716 1.895 0 2.61-.72.72-1.89.72-2.61 0s-.72-1.89 0-2.61z" transform="translate(-77 -248) translate(77 248)"/>
                <path d="M4.919 4.92L6.149 4.92 6.149 6.15 4.919 6.15z" transform="translate(-77 -248) translate(77 248) rotate(-45 5.534 5.535)"/>
                <path d="M12.497 20.328l.435-.435c1.2-1.2 1.2-3.151 0-4.35h-.001c-.039-.042.032.03-1.336-1.337.165-.123.32-.258.467-.404 1.233-1.233 1.6-3.074.935-4.69l-2.34-5.687c-.279-.676-.684-1.284-1.206-1.806-2.16-2.159-5.672-2.159-7.832 0-2.159 2.16-2.159 5.673 0 7.832l10.878 10.877zm-.075-1.815l-.795-.795.795-.796c.239.502.24 1.09 0 1.591zM2.49 2.49C4.169.81 6.902.81 8.58 2.49c.407.406.722.878.939 1.404l2.34 5.687c.475 1.155.213 2.47-.668 3.35-.549.55-1.046.668-1.635.976l2.07 2.07-.87.87L2.49 8.582C.81 6.9.81 4.169 2.49 2.49zM14.15 19.769L21 19.769 21 21 14.15 21z" transform="translate(-77 -248) translate(77 248)"/>
            </g>
        </g>
    </g>
</svg>
