<svg xmlns="http://www.w3.org/2000/svg" width="14" height="13" viewBox="0 0 14 13">
    <g fill="none" fill-rule="evenodd">
        <g fill="#000" fill-rule="nonzero">
            <g>
                <path d="M2.08 4.773l2.693 2.694c.446.445 1.17.445 1.616 0 .336-.336.419-.83.249-1.244l-1.441-3.5c-.095-.238-.237-.457-.424-.643-.743-.744-1.95-.744-2.693 0-.744.743-.744 1.95 0 2.693zm2.984-.372l.46 1.117c-.273.014-.543.124-.75.333-.095.094-.17.201-.224.315l-.855-.854c.407-.058.783-.244 1.078-.539.114-.113.21-.238.29-.372zm.787 2.527c-.149.149-.39.149-.539 0-.149-.149-.149-.39 0-.539.148-.148.39-.148.539 0 .148.149.148.39 0 .539zm-3.232-4.31c.445-.445 1.17-.445 1.616 0 .447.448.443 1.174 0 1.617-.446.445-1.17.445-1.616 0-.446-.446-.446-1.17 0-1.616z" transform="translate(-193 -252) translate(193.5 252)"/>
                <path d="M3.045 3.046L3.807 3.046 3.807 3.807 3.045 3.807z" transform="translate(-193 -252) translate(193.5 252) rotate(-45 3.426 3.427)"/>
                <path d="M7.736 12.584l.27-.27c.742-.742.742-1.95 0-2.693l-.001.001c-.024-.026.02.019-.827-.828.102-.076.198-.16.289-.25.763-.763.99-1.903.579-2.903l-1.449-3.52c-.172-.42-.424-.796-.746-1.119-1.337-1.336-3.512-1.336-4.849 0-1.336 1.337-1.336 3.512 0 4.849l6.734 6.733zm-.046-1.123l-.493-.493.493-.492c.148.31.148.674 0 .985zM1.54 1.54c1.04-1.04 2.731-1.04 3.771 0 .251.251.447.544.58.87l1.45 3.52c.294.715.131 1.53-.414 2.074-.34.34-.648.413-1.012.604l1.281 1.282-.538.538L1.54 5.312c-1.04-1.04-1.04-2.731 0-3.77zM8.759 12.238L13 12.238 13 13 8.759 13z" transform="translate(-193 -252) translate(193.5 252)"/>
            </g>
        </g>
    </g>
</svg>
