<svg xmlns="http://www.w3.org/2000/svg" width="24" height="25" viewBox="0 0 24 25">
    <g fill="none" fill-rule="evenodd">
        <g fill="#FFF">
            <g>
                <path d="M5.25 20.25H22.5v1.5H5.25v-1.5zM20.535 7.883l-5.947-5.94c-.282-.282-.664-.44-1.062-.44s-.78.158-1.061.44l-10.5 10.5c-.282.28-.44.663-.44 1.06 0 .399.158.78.44 1.062L5.348 18h7.192l7.995-7.995c.282-.281.44-.663.44-1.061 0-.398-.158-.78-.44-1.062zM11.918 16.5H6l-3-3 4.732-4.732 5.948 5.94-1.762 1.792zm2.82-2.82l-5.94-5.947L13.5 3l6 5.947-4.762 4.733z" transform="translate(-73 -420) translate(73 420.6)"/>
            </g>
        </g>
    </g>
</svg>
