<svg xmlns="http://www.w3.org/2000/svg" width="24" height="25" viewBox="0 0 24 25">
    <g fill="none" fill-rule="evenodd">
        <g fill="#000">
            <g>
                <path d="M18.75 8.25L17.692 9.307 19.628 11.25 12.75 11.25 12.75 4.372 14.693 6.308 15.75 5.25 12 1.5 8.25 5.25 9.307 6.308 11.25 4.372 11.25 11.25 4.372 11.25 6.308 9.307 5.25 8.25 1.5 12 5.25 15.75 6.308 14.693 4.372 12.75 11.25 12.75 11.25 19.628 9.307 17.692 8.25 18.75 12 22.5 15.75 18.75 14.693 17.692 12.75 19.628 12.75 12.75 19.628 12.75 17.692 14.693 18.75 15.75 22.5 12z" transform="translate(-72 -454) translate(72 454.92)"/>
            </g>
        </g>
    </g>
</svg>
