<svg xmlns="http://www.w3.org/2000/svg" width="13" height="13" viewBox="0 0 13 13">
    <g fill="none" fill-rule="evenodd">
        <g fill="#000">
            <g>
                <path d="M8.125 3.25h-.813c0-1.122-.909-2.031-2.03-2.031-1.123 0-2.032.91-2.032 2.031h-.813c0-1.57 1.274-2.844 2.844-2.844 1.57 0 2.844 1.273 2.844 2.844zm2.031 2.844c-.21 0-.416.057-.597.162-.223-.353-.61-.567-1.028-.569-.21.001-.416.057-.597.163-.304-.479-.899-.684-1.434-.496V3.25c0-.673-.546-1.219-1.219-1.219s-1.218.546-1.218 1.219v4.51l-.906-.618c-.208-.155-.46-.238-.72-.236-.494-.001-.94.297-1.129.754-.189.456-.083.982.268 1.33l3.25 2.966c.46.412 1.057.639 1.674.638h2.031c1.57 0 2.844-1.273 2.844-2.844V7.312c0-.673-.546-1.218-1.219-1.218zm.406 3.656c0 1.122-.909 2.031-2.03 2.031H6.5c-.41.005-.81-.14-1.121-.406l-3.23-2.966c-.075-.075-.117-.177-.118-.284 0-.154.087-.295.225-.363.137-.07.302-.054.425.038l2.194 1.503V3.25c0-.224.182-.406.406-.406.225 0 .407.182.407.406v4.469H6.5V6.5c0-.224.182-.406.406-.406.225 0 .407.182.407.406v1.219h.812v-.813c0-.224.182-.406.406-.406.225 0 .406.182.406.406v.813h.813v-.407c0-.224.182-.406.406-.406.225 0 .406.182.406.407V9.75z" transform="translate(-181 -461) translate(181 461)"/>
            </g>
        </g>
    </g>
</svg>
