<svg xmlns="http://www.w3.org/2000/svg" width="17" height="16" viewBox="0 0 17 16">
    <g fill="none" fill-rule="evenodd">
        <g fill="#FFF">
            <g>
                <path d="M10 4H9c0-1.38-1.12-2.5-2.5-2.5S4 2.62 4 4H3C3 2.067 4.567.5 6.5.5S10 2.067 10 4zm2.5 3.5c-.258 0-.512.07-.735.2-.274-.435-.751-.699-1.265-.7-.258 0-.512.07-.735.2C9.39 6.61 8.659 6.358 8 6.59V4c0-.828-.672-1.5-1.5-1.5S5 3.172 5 4v5.55l-1.115-.76C3.629 8.6 3.319 8.498 3 8.5c-.608-.002-1.158.365-1.39.927-.232.562-.102 1.21.33 1.638l4 3.65c.566.507 1.3.786 2.06.785h2.5c1.933 0 3.5-1.567 3.5-3.5V9c0-.828-.672-1.5-1.5-1.5zM13 12c0 1.38-1.12 2.5-2.5 2.5H8c-.505.006-.996-.172-1.38-.5l-3.975-3.65c-.092-.093-.144-.219-.145-.35 0-.19.107-.363.276-.447.17-.085.372-.067.524.047L6 11.45V4c0-.276.224-.5.5-.5s.5.224.5.5v5.5h1V8c0-.276.224-.5.5-.5s.5.224.5.5v1.5h1v-1c0-.276.224-.5.5-.5s.5.224.5.5v1h1V9c0-.276.224-.5.5-.5s.5.224.5.5v3z" transform="translate(-181 -459) translate(181.5 459)"/>
            </g>
        </g>
    </g>
</svg>
