<?xml version="1.0" encoding="UTF-8"?>
<svg width="21px" height="20px" viewBox="0 0 21 20" version="1.1" xmlns="http://www.w3.org/2000/svg" xmlns:xlink="http://www.w3.org/1999/xlink">
    <title>09D10329-4494-4673-8CE8-D1BAFB8256B7</title>
    <g id="Annotation-V2" stroke="none" stroke-width="1" fill="none" fill-rule="evenodd">
        <g id="01.03---Eba--Desktop-app---Annotation---Picture-In-Picture---All-Tools-Hover" transform="translate(-74.000000, -597.000000)" fill="#000000" fill-rule="nonzero">
            <g id="Group-63" transform="translate(84.500000, 606.950000) scale(-1, 1) translate(-84.500000, -606.950000) translate(74.000000, 597.200000)">
                <path d="M16.05,5.25 C16.65,4.65 16.65,3.75 16.05,3.15 C16.05,3.15 16.05,3.15 16.05,3.15 L13.35,0.45 C12.75,-0.15 11.85,-0.15 11.25,0.45 C11.25,0.45 11.25,0.45 11.25,0.45 L0,11.7 L0,16.5 L4.8,16.5 L16.05,5.25 Z M12.3,1.5 L15,4.2 L12.75,6.45 L10.05,3.75 L12.3,1.5 Z M1.5,15 L1.5,12.3 L9,4.8 L11.7,7.5 L4.2,15 L1.5,15 Z" id="Shape"></path>
                <path d="M20.6454545,10.6363636 C21.1181818,10.1636364 21.1181818,9.45454545 20.6454545,8.98181818 C20.6454545,8.98181818 20.6454545,8.98181818 20.6454545,8.98181818 L18.5181818,6.85454545 C18.0454545,6.38181818 17.3363636,6.38181818 16.8636364,6.85454545 C16.8636364,6.85454545 16.8636364,6.85454545 16.8636364,6.85454545 L8,15.7181818 L8,19.5 L11.7818182,19.5 L20.6454545,10.6363636 Z M17.6909091,7.68181818 L19.8181818,9.80909091 L18.0454545,11.5818182 L15.9181818,9.45454545 L17.6909091,7.68181818 Z M9.18181818,18.3181818 L9.18181818,16.1909091 L15.0909091,10.2818182 L17.2181818,12.4090909 L11.3090909,18.3181818 L9.18181818,18.3181818 Z" id="Shape-Copy"></path>
            </g>
        </g>
    </g>
</svg>